<?xml version="1.0" standalone="no"?><!DOCTYPE svg PUBLIC "-//W3C//DTD SVG 1.1//EN" "http://www.w3.org/Graphics/SVG/1.1/DTD/svg11.dtd"><svg t="1610786472549" class="icon" viewBox="0 0 1204 1024" version="1.1" xmlns="http://www.w3.org/2000/svg" p-id="3477" width="56.4375" height="48" xmlns:xlink="http://www.w3.org/1999/xlink"><defs><style type="text/css"></style></defs><path d="M1054.382603 130.894298h-79.962144a54.629923 54.629923 0 0 1-47.970594-29.548681l-22.387392-45.393868C881.675081 13.720226 869.945961 0 828.366985 0H376.335748c-41.578976 0-55.433058 17.953417-75.695488 57.005864L278.252867 102.399732a54.629923 54.629923 0 0 1-47.970593 29.565413H150.32013A147.860528 147.860528 0 0 0 0 279.758746V875.08268a149.416603 149.416603 0 0 0 150.32013 148.914643h904.062473A149.416603 149.416603 0 0 0 1204.702733 875.08268V279.758746a149.416603 149.416603 0 0 0-150.32013-148.914644z m74.624641 752.688229a74.725033 74.725033 0 0 1-75.695488 73.905166H150.32013a75.411045 75.411045 0 0 1-75.695488-73.888434V289.24578a74.725033 74.725033 0 0 1 75.695488-73.888435h117.274465A54.629923 54.629923 0 0 0 315.565188 185.725005l22.420856-45.326941c26.654048-43.285638 34.116512-73.888434 75.695489-73.888434h376.302284c41.578976 0 49.04144 30.619528 75.695488 73.888434l22.387393 45.326941a54.629923 54.629923 0 0 0 47.970593 29.565413h117.274465a75.411045 75.411045 0 0 1 75.695488 73.888434v594.420407z" fill="#2c2c2c" p-id="3478"></path><path d="M602.250975 218.820866A331.494035 331.494035 0 1 0 934.916249 550.314901a331.1092 331.1092 0 0 0-332.665274-331.494035z m0 580.683449a248.034907 248.034907 0 1 1 249.206145-248.034907 249.089022 249.089022 0 0 1-249.206145 247.951247z" fill="#2c2c2c" p-id="3479"></path></svg>