<?xml version="1.0" standalone="no"?><!DOCTYPE svg PUBLIC "-//W3C//DTD SVG 1.1//EN" "http://www.w3.org/Graphics/SVG/1.1/DTD/svg11.dtd"><svg t="1610895743623" class="icon" viewBox="0 0 1024 1024" version="1.1" xmlns="http://www.w3.org/2000/svg" p-id="2831" width="32" height="32" xmlns:xlink="http://www.w3.org/1999/xlink"><defs><style type="text/css"></style></defs><path d="M127.604 187.583h766.759c17.692 0 29.49 11.797 29.49 29.491s-11.798 29.49-29.49 29.49H127.604c-17.695 0-29.492-11.796-29.492-29.49s11.797-29.491 29.492-29.491z m0 294.907h766.759c17.692 0 29.49 11.798 29.49 29.491 0 17.695-11.798 29.491-29.49 29.491H127.604c-17.695 0-29.492-11.796-29.492-29.491 0-17.693 11.797-29.491 29.492-29.491z m0 294.907h766.759c17.692 0 29.49 11.799 29.49 29.491 0 17.693-11.798 29.491-29.49 29.491H127.604c-17.695 0-29.492-11.798-29.492-29.491 0-17.692 11.797-29.491 29.492-29.491z" p-id="2832" fill="#ffffff"></path></svg>