<?xml version="1.0" standalone="no"?><!DOCTYPE svg PUBLIC "-//W3C//DTD SVG 1.1//EN" "http://www.w3.org/Graphics/SVG/1.1/DTD/svg11.dtd"><svg t="1610786537208" class="icon" viewBox="0 0 1024 1024" version="1.1" xmlns="http://www.w3.org/2000/svg" p-id="5809" width="48" height="48" xmlns:xlink="http://www.w3.org/1999/xlink"><defs><style type="text/css"></style></defs><path d="M512 1024a512 512 0 1 1 512-512 512 512 0 0 1-512 512z m171.154286-574.171429a180.662857 180.662857 0 0 0-109.714286-109.714285L658.285714 109.714286h-292.571428l84.114285 231.131428a180.662857 180.662857 0 0 0-109.714285 109.714286L109.714286 365.714286v292.571428l231.131428-84.114285a180.662857 180.662857 0 0 0 109.714286 109.714285L365.714286 914.285714h292.571428l-84.114285-231.131428a180.662857 180.662857 0 0 0 109.714285-109.714286L914.285714 658.285714v-292.571428zM512 658.285714a146.285714 146.285714 0 0 1-146.285714-146.285714 149.577143 149.577143 0 0 1 5.12-36.571429H365.714286l9.508571-14.628571a146.285714 146.285714 0 0 1 36.571429-55.588571L512 256l99.474286 149.211429a146.285714 146.285714 0 0 1 36.571428 55.588571l10.24 14.628571h-5.12a149.577143 149.577143 0 0 1 5.12 36.571429 146.285714 146.285714 0 0 1-146.285714 146.285714z" p-id="5810" fill="#2c2c2c"></path></svg>