<?xml version="1.0" standalone="no"?><!DOCTYPE svg PUBLIC "-//W3C//DTD SVG 1.1//EN" "http://www.w3.org/Graphics/SVG/1.1/DTD/svg11.dtd"><svg t="1610901240065" class="icon" viewBox="0 0 1024 1024" version="1.1" xmlns="http://www.w3.org/2000/svg" p-id="6394" width="32" height="32" xmlns:xlink="http://www.w3.org/1999/xlink"><defs><style type="text/css"></style></defs><path d="M337.835 341.333l147.2-120.021a42.667 42.667 0 0 1 69.632 33.067v516.053a42.667 42.667 0 0 1-69.632 33.067L336.81 682.667H213.333A85.333 85.333 0 0 1 128 597.333V426.667a85.333 85.333 0 0 1 85.333-85.334h124.502z m433.792 110.294l60.33-60.374a42.667 42.667 0 0 1 60.331 60.374L832 511.957l60.33 60.331a42.667 42.667 0 1 1-60.33 60.33l-60.33-60.33-60.331 60.33a42.667 42.667 0 0 1-60.374-60.33l60.374-60.33-60.374-60.331a42.667 42.667 0 0 1 60.374-60.374l60.33 60.374z" p-id="6395" fill="#ffffff"></path></svg>