<?xml version="1.0" standalone="no"?><!DOCTYPE svg PUBLIC "-//W3C//DTD SVG 1.1//EN" "http://www.w3.org/Graphics/SVG/1.1/DTD/svg11.dtd"><svg t="1610901197900" class="icon" viewBox="0 0 1820 1024" version="1.1" xmlns="http://www.w3.org/2000/svg" p-id="4630" width="56.875" height="32" xmlns:xlink="http://www.w3.org/1999/xlink"><defs><style type="text/css"></style></defs><path d="M909.748148 123.733333c-214.376296 0-388.361481 173.985185-388.361481 388.361482 0 214.376296 173.985185 388.361481 388.361481 388.361481 214.376296 0 388.361481-173.985185 388.361482-388.361481 0-214.376296-173.985185-388.361481-388.361482-388.361482z m0 725.048889c-185.647407 0-336.687407-151.04-336.687407-336.687407S724.100741 175.407407 909.748148 175.407407s336.687407 151.04 336.687408 336.687408-151.04 336.687407-336.687408 336.687407z" p-id="4631" fill="#ffffff"></path><path d="M830.293333 352.237037c-19.437037 0-35.460741 15.928889-35.46074 35.460741v248.604444c0 19.437037 15.928889 35.460741 35.46074 35.460741 19.437037 0 35.460741-15.928889 35.460741-35.460741V387.697778c-0.094815-19.531852-16.023704-35.460741-35.460741-35.460741zM990.151111 352.237037c-19.437037 0-35.460741 15.928889-35.460741 35.460741v248.604444c0 19.437037 15.928889 35.460741 35.460741 35.460741 19.437037 0 35.460741-15.928889 35.460741-35.460741V387.697778c0-19.531852-15.928889-35.460741-35.460741-35.460741z" p-id="4632" fill="#ffffff"></path></svg>