<?xml version="1.0" standalone="no"?><!DOCTYPE svg PUBLIC "-//W3C//DTD SVG 1.1//EN" "http://www.w3.org/Graphics/SVG/1.1/DTD/svg11.dtd"><svg t="1610901173751" class="icon" viewBox="0 0 1024 1024" version="1.1" xmlns="http://www.w3.org/2000/svg" p-id="3731" width="32" height="32" xmlns:xlink="http://www.w3.org/1999/xlink"><defs><style type="text/css"></style></defs><path d="M732.16 492.5952L394.24 297.3184a22.528 22.528 0 0 0-33.792 19.5072v390.5024A22.528 22.528 0 0 0 394.24 727.04l337.92-195.4304a22.528 22.528 0 0 0 0-39.0656z m0 0" fill="#ffffff" p-id="3732"></path><path d="M511.0272 46.08a465.92 465.92 0 1 1-465.92 465.92 466.432 466.432 0 0 1 465.92-465.92m0-40.96a506.88 506.88 0 1 0 506.88 506.88 506.88 506.88 0 0 0-506.88-506.88z" fill="#ffffff" p-id="3733"></path></svg>